<?xml version="1.0" standalone="no"?>
<!DOCTYPE svg PUBLIC "-//W3C//DTD SVG 20010904//EN"
 "http://www.w3.org/TR/2001/REC-SVG-20010904/DTD/svg10.dtd">
<svg version="1.0" xmlns="http://www.w3.org/2000/svg"
 width="500.000000pt" height="500.000000pt" viewBox="0 0 500.000000 500.000000"
 preserveAspectRatio="xMidYMid meet">

<g transform="translate(0.000000,500.000000) scale(0.100000,-0.100000)"
fill="#000000" stroke="none">
<path d="M3122 3510 c-277 -39 -544 -202 -701 -427 -12 -18 -125 -211 -251
-430 -125 -219 -232 -399 -237 -400 -4 -1 -44 62 -89 140 -311 549 -552 958
-583 991 -125 133 -350 86 -416 -88 -13 -34 -16 -63 -13 -110 5 -60 14 -78
198 -397 106 -184 223 -386 260 -449 37 -63 121 -209 188 -325 66 -115 150
-262 186 -325 36 -63 82 -129 102 -147 102 -90 262 -80 354 23 19 21 85 126
145 232 90 159 112 191 120 176 38 -66 140 -186 204 -241 368 -315 895 -334
1276 -45 105 78 139 136 139 232 -1 150 -104 253 -253 253 -73 0 -105 -12
-186 -74 -337 -254 -815 -18 -815 401 0 172 85 326 232 424 181 120 411 109
591 -28 75 -58 106 -70 177 -70 77 0 145 29 192 83 44 50 61 97 62 171 0 53
-5 75 -29 119 -58 105 -273 236 -472 287 -110 28 -278 39 -381 24z"/>
<path d="M3893 2743 c-10 -3 -13 -62 -13 -243 0 -259 1 -263 55 -252 40 7 60
39 65 106 l5 61 45 1 c71 1 79 3 100 24 13 13 20 33 20 59 0 57 -33 81 -111
81 l-59 0 0 60 c0 51 -4 65 -25 85 -23 23 -53 30 -82 18z"/>
</g>
</svg>
