<?xml version="1.0" encoding="UTF-8" standalone="no"?>
<!DOCTYPE svg PUBLIC "-//W3C//DTD SVG 1.1//EN" "http://www.w3.org/Graphics/SVG/1.1/DTD/svg11.dtd">
<svg xmlns="http://www.w3.org/2000/svg" version="1.1" viewBox="0.00 0.00 500.00 500.00">
<g stroke-width="2.00" fill="none" stroke-linecap="butt">
<path stroke="#d18484" vector-effect="non-scaling-stroke" d="
  M 230.35 211.56
  L 212.73 241.96"
/>
<path stroke="#de8484" vector-effect="non-scaling-stroke" d="
  M 212.73 241.96
  L 193.28 275.30"
/>
<path stroke="#f78484" vector-effect="non-scaling-stroke" d="
  M 193.28 275.30
  Q 162.83 222.92 132.61 170.44
  Q 127.95 162.35 124.99 159.80
  C 115.11 151.31 100.04 151.31 90.48 160.55
  Q 80.44 170.24 83.45 185.77
  C 83.99 188.56 85.86 191.64 87.33 194.19
  Q 146.85 297.32 168.14 334.25
  Q 173.34 343.29 176.46 345.96
  C 188.33 356.13 207.53 353.43 215.51 339.51
  Q 226.48 320.34 237.63 301.14"
/>
<path stroke="#bd8383" vector-effect="non-scaling-stroke" d="
  M 237.63 301.14
  C 246.46 316.89 260.35 330.11 275.94 338.89
  C 297.18 350.86 322.15 354.55 345.91 349.75
  C 363.08 346.27 378.89 338.45 392.08 327.08
  Q 397.06 322.79 399.57 316.12
  Q 400.68 313.17 400.69 308.89
  Q 400.71 303.10 400.23 301.51
  Q 397.15 291.42 388.57 285.98
  C 385.01 283.71 379.14 282.11 375.28 282.39
  C 371.66 282.66 368.72 282.43 365.95 283.80
  Q 361.40 286.06 359.19 287.96
  Q 354.65 291.87 350.11 294.35
  Q 348.41 295.27 342.61 297.63
  C 333.43 301.38 321.85 301.58 313.11 299.17
  Q 290.26 292.89 279.85 271.71
  Q 273.09 257.94 275.54 241.78
  C 276.04 238.49 277.64 234.58 278.10 232.07
  C 278.53 229.73 280.10 227.97 281.52 225.34
  Q 283.51 221.63 284.41 220.44
  Q 294.45 207.27 308.15 202.41
  C 319.79 198.27 332.84 198.19 344.42 202.91
  Q 350.91 205.55 356.94 210.20
  Q 362.82 214.73 364.42 215.44
  Q 372.64 219.04 380.91 217.07
  Q 394.27 213.87 399.67 200.18
  C 401.43 195.71 401.16 186.39 398.72 181.85
  Q 395.97 176.71 395.41 176.14
  C 381.65 162.12 361.97 152.92 343.01 149.66
  Q 324.18 146.43 304.95 150.23
  Q 295.39 152.13 285.85 156.19
  Q 258.67 167.76 241.39 192.65
  Q 237.06 198.89 230.35 211.56"
/>
<path stroke="#b50808" vector-effect="non-scaling-stroke" d="
  M 237.63 301.14
  L 241.64 294.19"
/>
<path stroke="#9b0808" vector-effect="non-scaling-stroke" d="
  M 241.64 294.19
  L 256.35 268.74"
/>
<path stroke="#8e0808" vector-effect="non-scaling-stroke" d="
  M 256.35 268.74
  L 273.41 238.69
  Q 273.66 238.25 273.23 237.98
  L 230.35 211.56"
/>
<path stroke="#d60909" vector-effect="non-scaling-stroke" d="
  M 193.28 275.30
  Q 204.73 280.70 215.47 286.16
  Q 225.98 291.50 241.64 294.19"
/>
<path stroke="#af0909" vector-effect="non-scaling-stroke" d="
  M 256.35 268.74
  Q 234.04 256.21 212.73 241.96"
/>
<path stroke="#ffe880" vector-effect="non-scaling-stroke" d="
  M 349.92 241.54
  C 345.95 241.51 340.34 240.91 337.17 242.74
  C 331.53 245.99 331.81 254.76 337.31 257.72
  Q 339.26 258.78 343.51 258.78
  Q 346.80 258.78 350.05 258.88"
/>
<path stroke="#ffcf81" vector-effect="non-scaling-stroke" d="
  M 350.05 258.88
  Q 349.87 266.12 350.13 268.10
  C 351.29 276.74 362.20 278.94 366.43 271.63
  C 368.19 268.59 367.54 263.22 367.55 259.35
  Q 367.55 258.81 368.09 258.81
  L 380.54 258.76"
/>
<path stroke="#ffb083" vector-effect="non-scaling-stroke" d="
  M 380.54 258.76
  L 382.55 258.87
  Q 383.07 258.90 383.03 259.42
  Q 382.72 263.74 382.89 267.47
  C 383.31 276.31 394.20 279.02 399.13 272.08
  C 401.05 269.38 400.40 263.65 400.37 259.38
  Q 400.37 258.88 400.87 258.86
  L 406.23 258.72"
/>
<path stroke="#f78484" vector-effect="non-scaling-stroke" d="
  M 406.23 258.72
  C 413.12 259.65 418.13 255.84 417.31 248.76
  Q 416.77 244.01 411.96 242.07
  C 410.28 241.40 408.09 241.53 406.20 241.57"
/>
<path stroke="#ffb083" vector-effect="non-scaling-stroke" d="
  M 406.20 241.57
  L 400.87 241.45
  Q 400.36 241.43 400.37 240.93
  C 400.41 237.28 401.03 231.07 399.23 228.39
  C 397.37 225.63 394.02 224.01 390.63 224.49
  C 382.11 225.69 382.48 233.76 383.08 240.90
  Q 383.12 241.44 382.58 241.45
  L 379.96 241.53"
/>
<path stroke="#ffcf81" vector-effect="non-scaling-stroke" d="
  M 379.96 241.53
  L 368.06 241.46
  Q 367.55 241.46 367.56 240.95
  C 367.61 235.45 368.74 229.26 363.57 225.76
  C 360.08 223.41 354.52 224.13 351.95 227.79
  C 349.19 231.74 350.04 236.98 349.92 241.54"
/>
<path stroke="#ff8005" vector-effect="non-scaling-stroke" d="
  M 379.96 241.53
  L 380.54 258.76"
/>
<path stroke="#ffb702" vector-effect="non-scaling-stroke" d="
  M 350.05 258.88
  L 349.92 241.54"
/>
<path stroke="#f73508" vector-effect="non-scaling-stroke" d="
  M 406.20 241.57
  L 406.23 258.72"
/>
</g>
<path fill="#ffffff" d="
  M 500.00 0.00
  L 500.00 500.00
  L 0.00 500.00
  L 0.00 0.00
  L 500.00 0.00
  Z
  M 230.35 211.56
  L 212.73 241.96
  L 193.28 275.30
  Q 162.83 222.92 132.61 170.44
  Q 127.95 162.35 124.99 159.80
  C 115.11 151.31 100.04 151.31 90.48 160.55
  Q 80.44 170.24 83.45 185.77
  C 83.99 188.56 85.86 191.64 87.33 194.19
  Q 146.85 297.32 168.14 334.25
  Q 173.34 343.29 176.46 345.96
  C 188.33 356.13 207.53 353.43 215.51 339.51
  Q 226.48 320.34 237.63 301.14
  C 246.46 316.89 260.35 330.11 275.94 338.89
  C 297.18 350.86 322.15 354.55 345.91 349.75
  C 363.08 346.27 378.89 338.45 392.08 327.08
  Q 397.06 322.79 399.57 316.12
  Q 400.68 313.17 400.69 308.89
  Q 400.71 303.10 400.23 301.51
  Q 397.15 291.42 388.57 285.98
  C 385.01 283.71 379.14 282.11 375.28 282.39
  C 371.66 282.66 368.72 282.43 365.95 283.80
  Q 361.40 286.06 359.19 287.96
  Q 354.65 291.87 350.11 294.35
  Q 348.41 295.27 342.61 297.63
  C 333.43 301.38 321.85 301.58 313.11 299.17
  Q 290.26 292.89 279.85 271.71
  Q 273.09 257.94 275.54 241.78
  C 276.04 238.49 277.64 234.58 278.10 232.07
  C 278.53 229.73 280.10 227.97 281.52 225.34
  Q 283.51 221.63 284.41 220.44
  Q 294.45 207.27 308.15 202.41
  C 319.79 198.27 332.84 198.19 344.42 202.91
  Q 350.91 205.55 356.94 210.20
  Q 362.82 214.73 364.42 215.44
  Q 372.64 219.04 380.91 217.07
  Q 394.27 213.87 399.67 200.18
  C 401.43 195.71 401.16 186.39 398.72 181.85
  Q 395.97 176.71 395.41 176.14
  C 381.65 162.12 361.97 152.92 343.01 149.66
  Q 324.18 146.43 304.95 150.23
  Q 295.39 152.13 285.85 156.19
  Q 258.67 167.76 241.39 192.65
  Q 237.06 198.89 230.35 211.56
  Z
  M 349.92 241.54
  C 345.95 241.51 340.34 240.91 337.17 242.74
  C 331.53 245.99 331.81 254.76 337.31 257.72
  Q 339.26 258.78 343.51 258.78
  Q 346.80 258.78 350.05 258.88
  Q 349.87 266.12 350.13 268.10
  C 351.29 276.74 362.20 278.94 366.43 271.63
  C 368.19 268.59 367.54 263.22 367.55 259.35
  Q 367.55 258.81 368.09 258.81
  L 380.54 258.76
  L 382.55 258.87
  Q 383.07 258.90 383.03 259.42
  Q 382.72 263.74 382.89 267.47
  C 383.31 276.31 394.20 279.02 399.13 272.08
  C 401.05 269.38 400.40 263.65 400.37 259.38
  Q 400.37 258.88 400.87 258.86
  L 406.23 258.72
  C 413.12 259.65 418.13 255.84 417.31 248.76
  Q 416.77 244.01 411.96 242.07
  C 410.28 241.40 408.09 241.53 406.20 241.57
  L 400.87 241.45
  Q 400.36 241.43 400.37 240.93
  C 400.41 237.28 401.03 231.07 399.23 228.39
  C 397.37 225.63 394.02 224.01 390.63 224.49
  C 382.11 225.69 382.48 233.76 383.08 240.90
  Q 383.12 241.44 382.58 241.45
  L 379.96 241.53
  L 368.06 241.46
  Q 367.55 241.46 367.56 240.95
  C 367.61 235.45 368.74 229.26 363.57 225.76
  C 360.08 223.41 354.52 224.13 351.95 227.79
  C 349.19 231.74 350.04 236.98 349.92 241.54
  Z"
/>
<path fill="#7a0707" d="
  M 237.63 301.14
  L 241.64 294.19
  L 256.35 268.74
  L 273.41 238.69
  Q 273.66 238.25 273.23 237.98
  L 230.35 211.56
  Q 237.06 198.89 241.39 192.65
  Q 258.67 167.76 285.85 156.19
  Q 295.39 152.13 304.95 150.23
  Q 324.18 146.43 343.01 149.66
  C 361.97 152.92 381.65 162.12 395.41 176.14
  Q 395.97 176.71 398.72 181.85
  C 401.16 186.39 401.43 195.71 399.67 200.18
  Q 394.27 213.87 380.91 217.07
  Q 372.64 219.04 364.42 215.44
  Q 362.82 214.73 356.94 210.20
  Q 350.91 205.55 344.42 202.91
  C 332.84 198.19 319.79 198.27 308.15 202.41
  Q 294.45 207.27 284.41 220.44
  Q 283.51 221.63 281.52 225.34
  C 280.10 227.97 278.53 229.73 278.10 232.07
  C 277.64 234.58 276.04 238.49 275.54 241.78
  Q 273.09 257.94 279.85 271.71
  Q 290.26 292.89 313.11 299.17
  C 321.85 301.58 333.43 301.38 342.61 297.63
  Q 348.41 295.27 350.11 294.35
  Q 354.65 291.87 359.19 287.96
  Q 361.40 286.06 365.95 283.80
  C 368.72 282.43 371.66 282.66 375.28 282.39
  C 379.14 282.11 385.01 283.71 388.57 285.98
  Q 397.15 291.42 400.23 301.51
  Q 400.71 303.10 400.69 308.89
  Q 400.68 313.17 399.57 316.12
  Q 397.06 322.79 392.08 327.08
  C 378.89 338.45 363.08 346.27 345.91 349.75
  C 322.15 354.55 297.18 350.86 275.94 338.89
  C 260.35 330.11 246.46 316.89 237.63 301.14
  Z"
/>
<path fill="#ef0909" d="
  M 193.28 275.30
  Q 204.73 280.70 215.47 286.16
  Q 225.98 291.50 241.64 294.19
  L 237.63 301.14
  Q 226.48 320.34 215.51 339.51
  C 207.53 353.43 188.33 356.13 176.46 345.96
  Q 173.34 343.29 168.14 334.25
  Q 146.85 297.32 87.33 194.19
  C 85.86 191.64 83.99 188.56 83.45 185.77
  Q 80.44 170.24 90.48 160.55
  C 100.04 151.31 115.11 151.31 124.99 159.80
  Q 127.95 162.35 132.61 170.44
  Q 162.83 222.92 193.28 275.30
  Z"
/>
<path fill="#a20808" d="
  M 256.35 268.74
  Q 234.04 256.21 212.73 241.96
  L 230.35 211.56
  L 273.23 237.98
  Q 273.66 238.25 273.41 238.69
  L 256.35 268.74
  Z"
/>
<path fill="#ff9e03" d="
  M 379.96 241.53
  L 380.54 258.76
  L 368.09 258.81
  Q 367.55 258.81 367.55 259.35
  C 367.54 263.22 368.19 268.59 366.43 271.63
  C 362.20 278.94 351.29 276.74 350.13 268.10
  Q 349.87 266.12 350.05 258.88
  L 349.92 241.54
  C 350.04 236.98 349.19 231.74 351.95 227.79
  C 354.52 224.13 360.08 223.41 363.57 225.76
  C 368.74 229.26 367.61 235.45 367.56 240.95
  Q 367.55 241.46 368.06 241.46
  L 379.96 241.53
  Z"
/>
<path fill="#ff6106" d="
  M 406.20 241.57
  L 406.23 258.72
  L 400.87 258.86
  Q 400.37 258.88 400.37 259.38
  C 400.40 263.65 401.05 269.38 399.13 272.08
  C 394.20 279.02 383.31 276.31 382.89 267.47
  Q 382.72 263.74 383.03 259.42
  Q 383.07 258.90 382.55 258.87
  L 380.54 258.76
  L 379.96 241.53
  L 382.58 241.45
  Q 383.12 241.44 383.08 240.90
  C 382.48 233.76 382.11 225.69 390.63 224.49
  C 394.02 224.01 397.37 225.63 399.23 228.39
  C 401.03 231.07 400.41 237.28 400.37 240.93
  Q 400.36 241.43 400.87 241.45
  L 406.20 241.57
  Z"
/>
<path fill="#fed001" d="
  M 349.92 241.54
  L 350.05 258.88
  Q 346.80 258.78 343.51 258.78
  Q 339.26 258.78 337.31 257.72
  C 331.81 254.76 331.53 245.99 337.17 242.74
  C 340.34 240.91 345.95 241.51 349.92 241.54
  Z"
/>
<path fill="#ef0909" d="
  M 406.23 258.72
  L 406.20 241.57
  C 408.09 241.53 410.28 241.40 411.96 242.07
  Q 416.77 244.01 417.31 248.76
  C 418.13 255.84 413.12 259.65 406.23 258.72
  Z"
/>
<path fill="#bc0909" d="
  M 256.35 268.74
  L 241.64 294.19
  Q 225.98 291.50 215.47 286.16
  Q 204.73 280.70 193.28 275.30
  L 212.73 241.96
  Q 234.04 256.21 256.35 268.74
  Z"
/>
</svg>
